{"title":"Gang.Related.S01E02.MP4.HDTV.720p.NLsub.Th3Sp3cialist","uid":10797058,"size":777666670,"categoryP":"video","categoryS":"hd___tv_shows","magnet":"?xt=urn:btih:176c4b281221b20562a20e4b1bef575cc62a20c3&amp;dn=Gang.Related.S01E02.MP4.HDTV.720p.NLsub.Th3Sp3cialist&amp;tr=udp%3A%2F%2Ftracker.openbittorrent.com%3A80&amp;tr=udp%3A%2F%2Fopen.demonii.com%3A1337&amp;tr=udp%3A%2F%2Ftracker.coppersurfer.tk%3A6969&amp;tr=udp%3A%2F%2Fexodus.desync.com%3A6969","seeders":3,"leechers":0,"uploader":"HOLLANDmovies","files":-1,"time":1408304453,"description":"Complete name                  :\n\nGang.Related.S01E02.MP4.HDTV.720p.NLsub.Th3Sp3cialist.mp4\n\nFormat                         : MPEG-4\nFormat profile                 : Base Media\nCodec ID                       : isom\nFile size                      : 734 MiB\nDuration                       : 44mn 26s\nOverall bit rate mode          : Variable\nOverall bit rate               : 2 309 Kbps\nEncoded date                   : UTC 1970-01-01 00:00:00\nTagged date                    : UTC 1970-01-01 00:00:00\n\nVideo\nID                             : 1\nOriginal Source                : Gang Related S01E02 1080p HDTV NL Subs - BBT.mkv\nFormat                         : AVC\nFormat/Info                    : Advanced Video Codec\nFormat profile                 : &lt;a class=&quot;__cf_email__&quot; href=&quot;/cdn-cgi/l/email-protection&quot; data-cfemail=&quot;ce86a7a9a68e82fde0ff&quot;&gt;[email&amp;#160;protected]&lt;/a&gt;&lt;script cf-hash='f9e31' type=&quot;text/javascript&quot;&gt;\n/* &lt;![CDATA[ */!function(){try{var t=&quot;currentScript&quot;in document?document.currentScript:function(){for(var t=document.getElementsByTagName(&quot;script&quot;),e=t.length;e--;)if(t[e].getAttribute(&quot;cf-hash&quot;))return t[e]}();if(t&amp;&amp;t.previousSibling){var e,r,n,i,c=t.previousSibling,a=c.getAttribute(&quot;data-cfemail&quot;);if(a){for(e=&quot;&quot;,r=parseInt(a.substr(0,2),16),n=2;a.length-n;n+=2)i=parseInt(a.substr(n,2),16)^r,e+=String.fromCharCode(i);e=document.createTextNode(e),c.parentNode.replaceChild(e,c)}}}catch(u){}}();/* ]]&gt; */&lt;/script&gt;\nFormat settings, CABAC         : Yes\nFormat settings, ReFrames      : 5 frames\nCodec ID                       : avc1\nCodec ID/Info                  : Advanced Video Coding\nDuration                       : 44mn 25s\nBit rate                       : 2 152 Kbps\nWidth                          : 1 280 pixels\nHeight                         : 720 pixels\nDisplay aspect ratio           : 16:9\nFrame rate mode                : Constant\nFrame rate                     : 23.976 fps\nColor space                    : YUV\nChroma subsampling             : 4:2:0\nBit depth                      : 8 bits\nScan type                      : Progressive\nBits/(Pixel*Frame)             : 0.097\nStream size                    : 684 MiB (93%)\nEncoded date                   : UTC 1970-01-01 00:00:00\nTagged date                    : UTC 1970-01-01 00:00:00\n\nAudio\nID                             : 2\nFormat                         : AAC\nFormat/Info                    : Advanced Audio Codec\nFormat profile                 : LC\nCodec ID                       : 40\nDuration                       : 44mn 26s\nBit rate mode                  : Variable\nBit rate                       : 152 Kbps\nChannel(s)                     : 2 channels\nChannel positions              : Front: L R\nSampling rate                  : 44.1 KHz\nCompression mode               : Lossy\nStream size                    : 48.3 MiB (7%)\nEncoded date                   : UTC 1970-01-01 00:00:00\nTagged date                    : UTC 1970-01-01 00:00:00\n &lt;a href=&quot;\nhttp://bayimg.com/aApokAaFn&quot; rel=&quot;nofollow&quot; target=&quot;_NEW&quot;&gt;\nhttp://bayimg.com/aApokAaFn&lt;/a&gt; &lt;a href=&quot;\nhttp://bayimg.com/aapomAAFN&quot; rel=&quot;nofollow&quot; target=&quot;_NEW&quot;&gt;\nhttp://bayimg.com/aapomAAFN&lt;/a&gt;\n\n1Cg7Bf2sr4LMR8EwfCiKZfS7RjoAbNnEj7\n","torrent":{"xt":"urn:btih:176c4b281221b20562a20e4b1bef575cc62a20c3","amp;dn":"Gang.Related.S01E02.MP4.HDTV.720p.NLsub.Th3Sp3cialist","amp;tr":["udp%3A%2F%2Ftracker.openbittorrent.com%3A80","udp%3A%2F%2Fopen.demonii.com%3A1337","udp%3A%2F%2Ftracker.coppersurfer.tk%3A6969","udp%3A%2F%2Fexodus.desync.com%3A6969"],"infoHash":"176c4b281221b20562a20e4b1bef575cc62a20c3","infoHashBuffer":{"type":"Buffer","data":[23,108,75,40,18,33,178,5,98,162,14,75,27,239,87,92,198,42,32,195]},"announce":[],"urlList":[]}}